<?xml version="1.0" encoding="utf-8"?>
<!-- Generator: Adobe Illustrator 25.2.0, SVG Export Plug-In . SVG Version: 6.00 Build 0)  -->
<svg version="1.0" id="Layer_1" xmlns="http://www.w3.org/2000/svg" xmlns:xlink="http://www.w3.org/1999/xlink" x="0px" y="0px"
	 width="392.17px" height="58.25px" viewBox="0 0 392.17 58.25" style="enable-background:new 0 0 392.17 58.25;"
	 xml:space="preserve">
<style type="text/css">
	.st0{fill:#FFFFFF;}
	.st1{fill:#009BDF;}
	.st2{fill:url(#SVGID_1_);}
	.st3{fill:url(#SVGID_2_);}
	.st4{fill:url(#SVGID_3_);}
	.st5{fill:none;stroke:#FFFFFF;stroke-miterlimit:10;}
</style>
<g>
	<g>
		<g>
			<g>
				<path class="st0" d="M71.96,30.32c-0.35,0.12-0.69,0.29-1,0.5c-0.32,0.22-0.6,0.52-0.8,0.89c-0.21,0.37-0.31,0.79-0.31,1.25
					c0,0.62,0.19,1.14,0.58,1.55c0.39,0.41,0.92,0.62,1.6,0.62c0.66,0,1.19-0.19,1.55-0.57c0.36-0.37,0.54-0.83,0.54-1.35V30.3
					l-0.16-0.05C73.43,30.1,72.67,30.08,71.96,30.32 M72.85,33.57c0,0.21-0.06,0.37-0.18,0.5s-0.3,0.18-0.54,0.18
					c-0.3,0-0.53-0.12-0.71-0.36c-0.19-0.26-0.29-0.64-0.29-1.13c0-0.29,0.05-0.55,0.13-0.78c0.09-0.23,0.19-0.41,0.32-0.54
					c0.13-0.13,0.28-0.25,0.45-0.34c0.17-0.09,0.32-0.16,0.45-0.19c0.13-0.04,0.26-0.05,0.37-0.05h0.01L72.85,33.57z"/>
				<path class="st0" d="M73.1,29.48c0.19,0,0.36-0.07,0.5-0.21l0,0c0.14-0.14,0.21-0.31,0.21-0.5c0-0.19-0.07-0.36-0.21-0.5
					c-0.27-0.27-0.73-0.27-1.01,0c-0.14,0.14-0.21,0.31-0.21,0.5c0,0.19,0.07,0.36,0.21,0.5C72.74,29.4,72.91,29.48,73.1,29.48"/>
				<path class="st0" d="M71.57,29.48c0.19,0,0.36-0.07,0.5-0.21c0.14-0.14,0.21-0.31,0.21-0.5c0-0.19-0.07-0.36-0.21-0.5
					c-0.28-0.28-0.73-0.28-1.01,0c-0.14,0.14-0.21,0.31-0.21,0.5c0,0.19,0.07,0.36,0.21,0.5C71.2,29.41,71.37,29.48,71.57,29.48"/>
				<path class="st0" d="M76.69,30.25c-0.41,0-0.78,0.08-1.08,0.24c-0.34,0.18-0.52,0.35-0.57,0.54l-0.01,0.06l0.02,0.06
					c0.05,0.13,0.19,0.34,0.59,0.34c0.1,0,0.18-0.01,0.26-0.04l0.09-0.03l0.04-0.08c0.12-0.27,0.34-0.39,0.66-0.39
					c0.28,0,0.36,0.13,0.42,0.24c0.1,0.22,0.14,0.6,0.14,1.11v1.37c0,0.24-0.07,0.38-0.43,0.38h-2.04v1.05h2.32
					c1.24,0,1.43-0.75,1.43-1.2v-1.66c0-0.66-0.15-1.16-0.45-1.5C77.76,30.42,77.3,30.25,76.69,30.25"/>
				<path class="st0" d="M81.7,30.1c-0.71,0-1.3,0.26-1.75,0.78c-0.45,0.51-0.67,1.13-0.67,1.83c0,0.29,0.03,0.56,0.1,0.82
					c0.07,0.27,0.17,0.52,0.31,0.75c0.15,0.25,0.36,0.45,0.62,0.6c0.27,0.15,0.58,0.23,0.92,0.23c0.42,0,0.8-0.13,1.14-0.4v0.59
					c0,0.25-0.1,0.47-0.3,0.66c-0.26,0.26-0.54,0.32-0.94,0.27c-0.06-0.01-0.17-0.04-0.36-0.14c-0.14-0.07-0.24-0.18-0.32-0.3
					l-0.07-0.13l-0.15,0.02c-0.18,0.03-0.34,0.15-0.48,0.36c-0.13,0.19-0.2,0.36-0.2,0.5v0.12l0.11,0.06
					c0.43,0.25,1.02,0.38,1.74,0.38c0.6,0,1.12-0.22,1.56-0.66c0.44-0.43,0.66-1.04,0.66-1.79v-2.41c0-0.6-0.16-1.11-0.47-1.51
					C82.84,30.31,82.35,30.1,81.7,30.1 M82.37,33.25c0,0.29-0.07,0.5-0.21,0.62C82,34,81.8,34.07,81.54,34.07
					c-0.31,0-0.54-0.13-0.72-0.42c-0.19-0.31-0.29-0.73-0.29-1.25c0-0.43,0.1-0.81,0.3-1.14c0.18-0.3,0.44-0.45,0.81-0.45
					c0.23,0,0.39,0.08,0.52,0.26c0.14,0.2,0.2,0.42,0.2,0.66L82.37,33.25L82.37,33.25z"/>
				<path class="st0" d="M108.65,28.28c-0.27,0.18-0.41,0.39-0.41,0.64v4.5c0,0.57-0.26,0.65-0.52,0.65h-0.66l0,0h-0.54
					c-0.2,0-0.39-0.05-0.56-0.16c-0.16-0.1-0.28-0.21-0.37-0.34l-0.01-0.4c-0.01-0.71-0.21-1.31-0.6-1.8
					c-0.4-0.5-0.96-0.76-1.67-0.76c-0.57,0-1.03,0.21-1.38,0.61c-0.33,0.4-0.49,0.95-0.49,1.64v0.66c0,0.31-0.07,0.41-0.1,0.44
					c-0.04,0.04-0.14,0.1-0.42,0.1h-0.23h-0.26c-0.23,0-0.45-0.04-0.66-0.12c-0.35-0.12-0.68-0.33-0.97-0.6
					c-0.3-0.28-0.56-0.57-0.77-0.85l-0.65-0.9c-0.22-0.3-0.48-0.56-0.76-0.76c-0.3-0.21-0.63-0.31-0.98-0.31
					c-0.53,0-0.96,0.18-1.28,0.55c-0.31,0.35-0.52,0.77-0.63,1.31c0,0.18,0.11,0.29,0.33,0.3c0.17-0.02,0.27-0.18,0.36-0.34
					l0.26-0.48c0.07-0.14,0.19-0.27,0.35-0.4c0.31-0.24,0.77-0.23,1.08,0.01c0.18,0.14,0.33,0.32,0.47,0.55l0.45,0.78
					c0.15,0.28,0.35,0.58,0.6,0.88c0.11,0.13,0.22,0.26,0.34,0.37h-4.87l0,0h-3.4H89.2h-0.23c-0.21,0-0.41-0.05-0.58-0.15
					c-0.16-0.09-0.28-0.19-0.36-0.31v-1.34c0-0.66-0.15-1.16-0.45-1.5c-0.3-0.34-0.77-0.52-1.38-0.52c-0.41,0-0.78,0.08-1.08,0.24
					c-0.34,0.17-0.52,0.35-0.57,0.54l-0.01,0.06l0.02,0.06c0.05,0.13,0.19,0.35,0.59,0.35c0.09,0,0.18-0.01,0.26-0.04l0.09-0.03
					l0.04-0.08c0.13-0.27,0.34-0.39,0.66-0.39c0.28,0,0.37,0.13,0.42,0.24c0.1,0.22,0.14,0.6,0.14,1.11v1.37
					c0,0.24-0.07,0.38-0.43,0.38h-2.04v1.05h2.32c0.74,0,1.11-0.27,1.28-0.58c0.13,0.12,0.29,0.23,0.45,0.33
					c0.28,0.16,0.58,0.25,0.87,0.25l0,0h0.03h0.45h4.21l0,0h6.27l0,0h0.95c0.23,0,0.46-0.05,0.67-0.15
					c0.12-0.06,0.23-0.12,0.32-0.21c0.13,0.14,0.28,0.26,0.45,0.36c0.25,0.14,0.45,0.23,0.63,0.25c0.17,0.03,0.33,0.04,0.48,0.04
					c0.44,0,0.83-0.13,1.17-0.4c0.22-0.18,0.4-0.38,0.52-0.6c0.14,0.14,0.3,0.28,0.48,0.39c0.24,0.15,0.48,0.25,0.72,0.29v0.02h0.23
					h0.29h1.08c0.45,0,0.79-0.16,1.03-0.48c0.22-0.3,0.33-0.7,0.33-1.18v-5.41h-0.21C109.1,28.04,108.89,28.11,108.65,28.28
					 M103.42,34.49c-0.19,0-0.36-0.06-0.53-0.17c-0.14-0.1-0.21-0.25-0.21-0.47v-1.32c0-1.26,0.5-1.26,0.69-1.26
					c0.23,0,0.93,0,0.93,1.59C104.3,34.49,103.63,34.49,103.42,34.49"/>
				<path class="st0" d="M110.86,28.29c-0.27,0.18-0.41,0.39-0.41,0.65v6.22l0.24-0.03c0.32-0.04,0.58-0.2,0.77-0.48
					c0.18-0.26,0.27-0.61,0.27-1.05v-5.54h-0.21C111.32,28.05,111.1,28.13,110.86,28.29"/>
				<path class="st0" d="M118.21,30.3l-0.16-0.05c-0.54-0.15-1.29-0.18-2.01,0.06c-0.35,0.12-0.69,0.29-1,0.5
					c-0.32,0.22-0.6,0.52-0.8,0.89c-0.21,0.37-0.31,0.79-0.31,1.25c0,0.62,0.19,1.14,0.58,1.55c0.39,0.41,0.92,0.62,1.6,0.62
					c0.66,0,1.19-0.19,1.55-0.57c0.36-0.37,0.54-0.83,0.54-1.35L118.21,30.3L118.21,30.3z M116.94,33.57c0,0.21-0.06,0.37-0.18,0.5
					s-0.3,0.18-0.54,0.18c-0.3,0-0.53-0.12-0.71-0.36c-0.19-0.26-0.29-0.64-0.29-1.13c0-0.29,0.05-0.55,0.13-0.78
					c0.09-0.23,0.19-0.41,0.32-0.54c0.13-0.13,0.28-0.25,0.45-0.34c0.17-0.09,0.32-0.16,0.45-0.19c0.13-0.04,0.26-0.05,0.37-0.05
					h0.01L116.94,33.57z"/>
				<path class="st0" d="M115.66,29.48c0.19,0,0.36-0.07,0.5-0.21c0.14-0.14,0.21-0.31,0.21-0.5c0-0.19-0.07-0.36-0.21-0.5
					c-0.28-0.28-0.73-0.28-1.01,0c-0.14,0.14-0.21,0.31-0.21,0.5c0,0.19,0.07,0.36,0.21,0.5C115.29,29.41,115.46,29.48,115.66,29.48
					"/>
				<path class="st0" d="M117.19,29.48c0.19,0,0.36-0.07,0.5-0.21c0.14-0.14,0.21-0.31,0.21-0.5c0-0.19-0.07-0.36-0.21-0.5
					c-0.28-0.28-0.73-0.28-1.01,0c-0.14,0.14-0.21,0.31-0.21,0.5c0,0.19,0.07,0.36,0.21,0.5C116.83,29.4,117,29.48,117.19,29.48"/>
				<path class="st0" d="M120.3,30.3c-0.27,0.18-0.41,0.39-0.41,0.65v4.62c0,0.2-0.05,0.34-0.15,0.44c-0.1,0.1-0.23,0.15-0.41,0.15
					c-0.23,0-0.4-0.09-0.53-0.29l-0.07-0.11l-0.13,0.01c-0.17,0.01-0.34,0.09-0.53,0.22c-0.21,0.15-0.31,0.31-0.31,0.48v0.07
					l0.05,0.06c0.12,0.15,0.28,0.26,0.48,0.34c0.19,0.06,0.36,0.1,0.53,0.1c0.7,0,1.26-0.21,1.68-0.61
					c0.42-0.41,0.64-1.01,0.64-1.78v-4.58h-0.21C120.76,30.07,120.55,30.15,120.3,30.3"/>
				<path class="st0" d="M126.81,35.82c-0.14,0.14-0.21,0.31-0.21,0.5c0,0.19,0.07,0.36,0.21,0.5s0.31,0.21,0.5,0.21
					c0.19,0,0.36-0.07,0.5-0.21l0,0c0.14-0.14,0.21-0.31,0.21-0.5c0-0.19-0.07-0.37-0.21-0.5
					C127.54,35.55,127.09,35.55,126.81,35.82"/>
				<path class="st0" d="M131.92,29.73c0.19,0,0.36-0.07,0.5-0.21c0.14-0.14,0.21-0.31,0.21-0.5c0-0.19-0.07-0.37-0.21-0.5
					c-0.28-0.28-0.73-0.28-1.01,0c-0.14,0.14-0.21,0.31-0.21,0.5c0,0.19,0.07,0.36,0.21,0.5C131.56,29.66,131.73,29.73,131.92,29.73
					"/>
				<path class="st0" d="M133.46,29.73c0.19,0,0.36-0.07,0.5-0.21l0,0c0.14-0.14,0.21-0.31,0.21-0.5c0-0.19-0.07-0.36-0.21-0.5
					c-0.28-0.28-0.73-0.28-1.01,0c-0.14,0.13-0.21,0.31-0.21,0.5c0,0.19,0.07,0.36,0.21,0.5C133.09,29.66,133.27,29.73,133.46,29.73
					"/>
				<path class="st0" d="M145.37,28.28c-0.27,0.18-0.41,0.39-0.41,0.65v4.5c0,0.57-0.25,0.65-0.52,0.65h-0.66h-0.53h-0.18
					c-0.21,0-0.41-0.05-0.58-0.15c-0.16-0.09-0.27-0.18-0.35-0.3v-5.57h-0.21c-0.19,0-0.4,0.08-0.64,0.24
					c-0.27,0.18-0.41,0.39-0.41,0.64v4.26c0,0.15,0,0.27-0.01,0.36c-0.01,0.08-0.03,0.18-0.07,0.28c-0.03,0.08-0.06,0.13-0.12,0.17
					c-0.06,0.04-0.15,0.06-0.26,0.06h-0.2h-0.82H136l0,0h-0.7c-0.21,0-0.41-0.05-0.58-0.14c-0.16-0.09-0.27-0.18-0.35-0.3v-3.26
					h-0.21c-0.19,0-0.4,0.08-0.64,0.24c-0.33,0.22-0.41,0.47-0.41,0.64v1.95c0,0.15,0,0.27-0.01,0.36
					c-0.01,0.08-0.03,0.18-0.06,0.28c-0.03,0.08-0.07,0.13-0.12,0.17c-0.06,0.04-0.15,0.06-0.26,0.06h-0.76
					c-0.23,0-0.44-0.04-0.66-0.12c-0.35-0.12-0.68-0.33-0.97-0.6c-0.3-0.28-0.56-0.57-0.77-0.85l-0.65-0.9
					c-0.22-0.3-0.48-0.56-0.76-0.76c-0.3-0.21-0.63-0.31-0.98-0.31c-0.53,0-0.96,0.18-1.28,0.55c-0.31,0.35-0.52,0.77-0.63,1.31
					c0,0.18,0.12,0.3,0.32,0.3h0c0.17-0.02,0.27-0.18,0.36-0.34l0.26-0.48c0.07-0.14,0.18-0.27,0.35-0.4
					c0.31-0.24,0.78-0.23,1.08,0.01c0.18,0.14,0.33,0.32,0.47,0.55l0.45,0.78c0.15,0.28,0.35,0.58,0.6,0.88
					c0.11,0.13,0.22,0.26,0.34,0.37h-4.35h-1.16c-0.26,0-0.52-0.08-0.52-0.65v-5.37h-0.21c-0.18,0-0.4,0.07-0.65,0.23
					c-0.35,0.21-0.42,0.47-0.42,0.64v4.54c0,0.48,0.11,0.88,0.33,1.18c0.24,0.32,0.58,0.48,1.03,0.48h1.61l0,0h6.56h1.14
					c0.75,0,1.14-0.32,1.33-0.68c0.14,0.14,0.3,0.27,0.48,0.38c0.3,0.19,0.62,0.29,0.95,0.3v0h3.87h0.82h0.33
					c0.75,0,1.14-0.32,1.33-0.68c0.14,0.14,0.3,0.27,0.48,0.38c0.29,0.18,0.59,0.28,0.9,0.29v0h0.07c0,0,0,0,0,0h0.45l0,0h1.08
					c0.45,0,0.79-0.16,1.03-0.48c0.22-0.3,0.33-0.7,0.33-1.18v-5.4h-0.21C145.82,28.04,145.61,28.12,145.37,28.28"/>
				<path class="st0" d="M160.96,35.83c-0.14,0.14-0.21,0.31-0.21,0.5c0,0.19,0.07,0.36,0.21,0.5c0.14,0.14,0.31,0.21,0.5,0.21
					c0.19,0,0.36-0.07,0.5-0.21l0,0c0.14-0.14,0.21-0.31,0.21-0.5c0-0.19-0.07-0.36-0.21-0.5
					C161.69,35.55,161.23,35.55,160.96,35.83"/>
				<path class="st0" d="M178.68,29.47c0.19,0,0.36-0.07,0.5-0.21c0.14-0.14,0.21-0.31,0.21-0.5c0-0.19-0.07-0.36-0.21-0.5
					c-0.27-0.27-0.73-0.28-1.01,0c-0.14,0.14-0.21,0.31-0.21,0.5c0,0.19,0.07,0.37,0.21,0.5C178.32,29.39,178.49,29.47,178.68,29.47
					"/>
				<path class="st0" d="M179.65,30.3c-0.27,0.18-0.41,0.39-0.41,0.65v2.47c0,0.57-0.26,0.65-0.52,0.65h-0.36l0,0h-3.92h-0.77h-3.15
					h-0.77h-3.71c-0.23,0-0.45-0.04-0.66-0.12c-0.35-0.12-0.68-0.33-0.97-0.6c-0.3-0.28-0.56-0.57-0.77-0.85l-0.65-0.9
					c-0.22-0.3-0.48-0.56-0.76-0.76c-0.3-0.21-0.63-0.31-0.98-0.31c-0.53,0-0.96,0.18-1.28,0.55c-0.31,0.35-0.52,0.77-0.63,1.31
					c0,0.18,0.12,0.3,0.32,0.3h0c0.17-0.02,0.27-0.18,0.36-0.34l0.26-0.48c0.07-0.14,0.19-0.27,0.35-0.4
					c0.31-0.24,0.78-0.23,1.08,0.01c0.18,0.14,0.33,0.32,0.47,0.55l0.45,0.78c0.15,0.28,0.35,0.58,0.6,0.88
					c0.11,0.13,0.22,0.26,0.35,0.37h-4.06l0,0h-4.21h-0.48h-0.23c-0.21,0-0.41-0.05-0.58-0.14c-0.16-0.09-0.27-0.18-0.35-0.3v-5.36
					l-0.01-0.21h-0.21c-0.19,0-0.4,0.08-0.64,0.24c-0.26,0.18-0.4,0.39-0.4,0.64v5.22c0,1.16-0.54,1.71-1.72,1.71
					c-0.39,0-0.72-0.11-0.99-0.33c-0.26-0.21-0.39-0.52-0.39-0.93c0-0.32,0.07-0.62,0.2-0.89c0.15-0.3,0.34-0.34,0.47-0.34h0.13
					l0.06-0.12c0.05-0.12,0.08-0.25,0.08-0.42c0-0.36-0.18-0.46-0.3-0.48l-0.04-0.01l-0.04,0.01c-0.4,0.06-0.75,0.37-1.03,0.91
					c-0.27,0.51-0.4,1.02-0.4,1.5c0,0.73,0.2,1.31,0.6,1.7c0.4,0.39,0.93,0.59,1.6,0.59c0.74,0,1.4-0.3,1.97-0.88
					c0.46-0.47,0.77-1,0.93-1.59c0.13,0.11,0.27,0.21,0.42,0.3c0.28,0.17,0.57,0.25,0.87,0.25l0,0h0.03h0.45h4.21l0,0h6.33l0,0h3.92
					h0.77h3.15h0.77h3.92l0,0h0.78c0.45,0,0.79-0.16,1.03-0.48c0.22-0.3,0.33-0.7,0.33-1.18v-3.39h-0.21
					C180.1,30.07,179.89,30.15,179.65,30.3"/>
				<path class="st0" d="M182.72,33.59v-5.54h-0.21c-0.19,0-0.41,0.08-0.66,0.24c-0.27,0.18-0.41,0.39-0.41,0.65v6.22l0.24-0.03
					c0.32-0.04,0.58-0.2,0.77-0.48C182.64,34.38,182.72,34.03,182.72,33.59"/>
				<path class="st0" d="M198.72,29.48c0.19,0,0.37-0.07,0.5-0.21c0.14-0.14,0.21-0.31,0.21-0.5c0-0.19-0.07-0.36-0.21-0.5
					c-0.27-0.27-0.73-0.28-1.01,0c-0.14,0.14-0.21,0.31-0.21,0.5c0,0.19,0.07,0.36,0.21,0.5C198.36,29.4,198.53,29.48,198.72,29.48"
					/>
				<path class="st0" d="M200.26,29.48c0.19,0,0.36-0.07,0.5-0.21l0,0c0.14-0.14,0.21-0.31,0.21-0.5c0-0.19-0.07-0.36-0.21-0.5
					c-0.28-0.28-0.73-0.27-1.01,0c-0.14,0.14-0.21,0.31-0.21,0.5c0,0.19,0.07,0.36,0.21,0.5C199.89,29.4,200.07,29.48,200.26,29.48"
					/>
				<path class="st0" d="M200.66,30.3c-0.27,0.18-0.41,0.39-0.41,0.64v2.47c0,0.57-0.25,0.65-0.52,0.65h-0.36h-0.82h-3.1h-0.77
					h-3.15h-0.77h-3.44h-0.48h-0.23c-0.21,0-0.41-0.05-0.58-0.15c-0.16-0.08-0.27-0.18-0.35-0.3v-3.26h-0.21
					c-0.19,0-0.4,0.08-0.64,0.24c-0.27,0.18-0.41,0.39-0.41,0.65v4.33c0,0.2-0.05,0.34-0.14,0.44c-0.1,0.1-0.23,0.15-0.41,0.15
					c-0.24,0-0.4-0.09-0.53-0.29l-0.07-0.11l-0.13,0.01c-0.17,0.02-0.35,0.09-0.53,0.22c-0.21,0.15-0.31,0.31-0.31,0.48
					c0,0.1,0.04,0.18,0.09,0.24c0.19,0.22,0.5,0.33,0.97,0.33c0.69,0,1.26-0.21,1.68-0.61c0.42-0.41,0.64-1,0.64-1.76
					c0.1,0.07,0.21,0.15,0.32,0.21c0.27,0.15,0.55,0.23,0.84,0.24l0,0h0.03h0.45h3.44h0.77h3.15h0.77h3.1h0.82h0.78
					c0.45,0,0.79-0.16,1.03-0.48c0.22-0.3,0.33-0.7,0.33-1.18v-3.39h-0.21C201.11,30.07,200.9,30.15,200.66,30.3"/>
				<path class="st0" d="M222.07,35.82c-0.14,0.14-0.21,0.31-0.21,0.5c0,0.19,0.07,0.36,0.21,0.5c0.14,0.14,0.31,0.21,0.5,0.21
					c0.19,0,0.36-0.07,0.5-0.21l0,0c0.14-0.14,0.21-0.31,0.21-0.5c0-0.19-0.07-0.36-0.21-0.5C222.8,35.55,222.35,35.55,222.07,35.82
					"/>
				<path class="st0" d="M223.69,30.07c-0.19,0-0.4,0.08-0.64,0.24c-0.27,0.18-0.41,0.39-0.41,0.64v2.47c0,0.57-0.26,0.65-0.52,0.65
					h-0.36h-4.21h-0.48h-0.23c-0.21,0-0.41-0.05-0.58-0.14c-0.16-0.09-0.27-0.18-0.35-0.3v-5.57h-0.21c-0.19,0-0.4,0.08-0.64,0.24
					c-0.27,0.18-0.41,0.39-0.41,0.64v4.26c0,0.15,0,0.27-0.01,0.36c-0.01,0.08-0.03,0.18-0.07,0.28c-0.03,0.07-0.06,0.13-0.12,0.17
					c-0.06,0.04-0.15,0.06-0.26,0.06h-0.2h-0.82h-3.4h-0.48h-0.93V32.3c0-0.6-0.16-1.11-0.47-1.5c-0.32-0.41-0.81-0.61-1.46-0.61
					c-0.7,0-1.27,0.29-1.7,0.85c-0.41,0.54-0.62,1.19-0.62,1.9c0,0.6,0.19,1.11,0.56,1.53c0.38,0.43,0.91,0.65,1.59,0.65h0.84v0.19
					c0,0.25-0.1,0.46-0.29,0.66c-0.27,0.26-0.54,0.32-0.94,0.27c-0.06-0.01-0.17-0.04-0.36-0.14c-0.14-0.07-0.24-0.18-0.32-0.3
					l-0.07-0.13l-0.15,0.02c-0.18,0.03-0.34,0.15-0.48,0.36c-0.13,0.19-0.2,0.36-0.2,0.5v0.12l0.11,0.06
					c0.43,0.25,1.02,0.38,1.74,0.38c0.56,0,1.06-0.19,1.49-0.58c0.38-0.35,0.62-0.82,0.7-1.4h0.96h0.48h3.4h0.82h0.33
					c0.75,0,1.14-0.32,1.33-0.68c0.14,0.14,0.3,0.27,0.48,0.38c0.3,0.19,0.62,0.29,0.95,0.3l0,0h0.03h0.45h4.21l0,0h0.78
					c0.45,0,0.8-0.16,1.03-0.48c0.22-0.3,0.33-0.7,0.33-1.18v-3.39H223.69z M207.11,34.07h-0.69c-0.37,0-0.62-0.11-0.78-0.32
					c-0.17-0.23-0.25-0.61-0.25-1.11c0-0.21,0.02-0.41,0.06-0.61c0.04-0.2,0.1-0.39,0.18-0.58c0.07-0.17,0.17-0.3,0.3-0.4
					c0.13-0.1,0.28-0.14,0.47-0.14c0.24,0,0.4,0.08,0.52,0.24c0.13,0.18,0.2,0.4,0.2,0.64L207.11,34.07L207.11,34.07z"/>
			</g>
			<g>
				<path class="st0" d="M73.94,48.85v-0.02c0.9-0.33,1.39-1.04,1.39-1.81c0-0.71-0.35-1.25-0.87-1.56
					c-0.57-0.4-1.26-0.53-2.39-0.53c-0.85,0-1.73,0.07-2.22,0.18v8.21c0.38,0.05,1.03,0.11,1.87,0.11c1.52,0,2.5-0.26,3.1-0.78
					c0.48-0.4,0.8-0.98,0.8-1.72C75.62,49.77,74.81,49.07,73.94,48.85 M71.36,46.11c0.16-0.04,0.42-0.06,0.87-0.06
					c0.96,0,1.56,0.36,1.56,1.14c0,0.71-0.6,1.2-1.65,1.2h-0.78V46.11z M72.17,52.27c-0.35,0-0.6-0.01-0.8-0.04v-2.72h0.76
					c1.05,0,1.9,0.4,1.9,1.36C74.01,51.9,73.14,52.27,72.17,52.27"/>
				<rect x="76.92" y="44.54" class="st0" width="1.54" height="8.79"/>
				<path class="st0" d="M85.5,47.3h-1.52v3.64c0,0.17-0.04,0.33-0.09,0.47c-0.16,0.38-0.56,0.82-1.16,0.82
					c-0.8,0-1.13-0.64-1.13-1.65V47.3h-1.52v3.54c0,1.97,1,2.63,2.1,2.63c1.08,0,1.67-0.62,1.93-1.05h0.02l0.07,0.92h1.34
					c-0.02-0.49-0.05-1.09-0.05-1.81L85.5,47.3L85.5,47.3z"/>
				<path class="st0" d="M89.7,47.17c-1.93,0-2.95,1.57-2.95,3.24c0,1.85,1.15,3.05,3.11,3.05c0.87,0,1.58-0.16,2.1-0.37l-0.22-1.05
					c-0.46,0.17-0.96,0.27-1.67,0.27c-0.96,0-1.82-0.47-1.86-1.56h4.04c0.02-0.13,0.05-0.36,0.05-0.64
					C92.31,48.78,91.66,47.17,89.7,47.17 M88.22,49.68c0.06-0.62,0.46-1.47,1.4-1.47c1.02,0,1.26,0.91,1.25,1.47H88.22z"/>
				<polygon class="st0" points="94.88,46.26 97.25,46.26 97.25,53.33 98.78,53.33 98.78,46.26 101.18,46.26 101.18,44.99 
					94.88,44.99 				"/>
				<path class="st0" d="M102.85,48.45h-0.05l-0.05-1.15h-1.32c0.04,0.54,0.05,1.13,0.05,1.94v4.08H103v-3.12
					c0-0.18,0.02-0.33,0.05-0.47c0.13-0.68,0.63-1.15,1.36-1.15c0.18,0,0.32,0.02,0.45,0.05V47.2c-0.12-0.02-0.21-0.04-0.36-0.04
					C103.85,47.17,103.15,47.6,102.85,48.45"/>
				<rect x="105.88" y="47.3" class="st0" width="1.54" height="6.03"/>
				<path class="st0" d="M106.65,44.79c-0.51,0-0.85,0.36-0.85,0.83c0,0.46,0.34,0.82,0.84,0.82c0.53,0,0.87-0.36,0.87-0.82
					C107.49,45.15,107.17,44.79,106.65,44.79"/>
				<path class="st0" d="M113.73,49.71c0-1.31-0.56-2.54-2.49-2.54c-0.96,0-1.74,0.26-2.18,0.53l0.3,0.99
					c0.41-0.26,1.03-0.45,1.62-0.45c1.07,0,1.23,0.66,1.23,1.05v0.1c-2.23-0.01-3.58,0.76-3.58,2.28c0,0.92,0.68,1.8,1.89,1.8
					c0.78,0,1.41-0.33,1.78-0.8h0.04l0.1,0.67h1.38c-0.06-0.37-0.09-0.9-0.09-1.45L113.73,49.71L113.73,49.71z M112.25,51.21
					c0,0.1-0.01,0.22-0.05,0.34c-0.13,0.43-0.58,0.83-1.19,0.83c-0.48,0-0.87-0.27-0.87-0.87c0-0.92,1.03-1.15,2.1-1.13
					L112.25,51.21L112.25,51.21z"/>
				<path class="st0" d="M118.66,47.17c-1,0-1.66,0.57-1.92,1.04h-0.04l-0.07-0.9h-1.34c0.04,0.52,0.05,1.1,0.05,1.8v4.24h1.54
					v-3.54c0-0.18,0.01-0.36,0.06-0.49c0.16-0.46,0.58-0.89,1.19-0.89c0.83,0,1.15,0.66,1.15,1.52v3.41h1.52v-3.58
					C120.8,47.85,119.71,47.17,118.66,47.17"/>
				<path class="st0" d="M126.54,48.11h-0.02c-0.29-0.49-0.83-0.94-1.74-0.94c-1.45,0-2.74,1.2-2.74,3.18
					c0,1.71,1.07,2.94,2.56,2.94c0.79,0,1.41-0.36,1.76-0.89h0.02v0.52c0,1.3-0.74,1.82-1.74,1.82c-0.73,0-1.38-0.24-1.76-0.46
					l-0.33,1.15c0.52,0.32,1.34,0.48,2.1,0.48c0.83,0,1.7-0.18,2.33-0.73c0.63-0.57,0.89-1.47,0.89-2.74v-3.42
					c0-0.83,0.02-1.32,0.05-1.73h-1.32L126.54,48.11z M126.36,50.69c0,0.18-0.02,0.38-0.06,0.54c-0.18,0.54-0.67,0.92-1.24,0.92
					c-0.95,0-1.47-0.83-1.47-1.86c0-1.23,0.63-1.97,1.49-1.97c0.65,0,1.08,0.42,1.24,0.98c0.04,0.12,0.05,0.27,0.05,0.41
					L126.36,50.69L126.36,50.69z"/>
				<rect x="129.51" y="44.54" class="st0" width="1.53" height="8.79"/>
				<path class="st0" d="M135.25,47.17c-1.93,0-2.95,1.57-2.95,3.24c0,1.85,1.15,3.05,3.11,3.05c0.87,0,1.58-0.16,2.1-0.37
					l-0.22-1.05c-0.46,0.17-0.96,0.27-1.67,0.27c-0.96,0-1.82-0.47-1.86-1.56h4.04c0.02-0.13,0.05-0.36,0.05-0.64
					C137.86,48.78,137.21,47.17,135.25,47.17 M133.77,49.68c0.06-0.62,0.46-1.47,1.4-1.47c1.02,0,1.26,0.91,1.25,1.47H133.77z"/>
				<polygon class="st0" points="140.43,46.26 142.8,46.26 142.8,53.33 144.33,53.33 144.33,46.26 146.73,46.26 146.73,44.99 
					140.43,44.99 				"/>
				<path class="st0" d="M148.4,48.45h-0.05l-0.05-1.15h-1.32c0.04,0.54,0.05,1.13,0.05,1.94v4.08h1.52v-3.12
					c0-0.18,0.02-0.33,0.05-0.47c0.13-0.68,0.63-1.15,1.36-1.15c0.18,0,0.32,0.02,0.45,0.05V47.2c-0.12-0.02-0.21-0.04-0.36-0.04
					C149.4,47.17,148.7,47.6,148.4,48.45"/>
				<path class="st0" d="M156,49.71c0-1.31-0.56-2.54-2.49-2.54c-0.96,0-1.74,0.26-2.18,0.53l0.3,0.99
					c0.41-0.26,1.03-0.45,1.62-0.45c1.07,0,1.23,0.66,1.23,1.05v0.1c-2.23-0.01-3.58,0.76-3.58,2.28c0,0.92,0.68,1.8,1.9,1.8
					c0.78,0,1.41-0.33,1.78-0.8h0.04l0.1,0.67h1.38c-0.06-0.37-0.09-0.9-0.09-1.45L156,49.71L156,49.71z M154.51,51.21
					c0,0.1-0.01,0.22-0.05,0.34c-0.13,0.43-0.58,0.83-1.19,0.83c-0.48,0-0.87-0.27-0.87-0.87c0-0.92,1.03-1.15,2.1-1.13
					L154.51,51.21L154.51,51.21z"/>
				<path class="st0" d="M163.17,44.54h-1.52v3.42h-0.02c-0.27-0.44-0.87-0.79-1.7-0.79c-1.45,0-2.71,1.2-2.7,3.22
					c0,1.86,1.14,3.08,2.58,3.08c0.88,0,1.61-0.42,1.97-1.09h0.02l0.06,0.96h1.36c-0.02-0.41-0.05-1.08-0.05-1.7L163.17,44.54
					L163.17,44.54z M161.64,50.72c0,0.16-0.01,0.31-0.05,0.45c-0.15,0.66-0.69,1.08-1.31,1.08c-0.96,0-1.51-0.8-1.51-1.91
					c0-1.13,0.54-1.99,1.52-1.99c0.69,0,1.18,0.48,1.32,1.08c0.02,0.12,0.04,0.27,0.04,0.4L161.64,50.72L161.64,50.72z"/>
				<path class="st0" d="M165.57,44.79c-0.51,0-0.85,0.36-0.85,0.83c0,0.46,0.33,0.82,0.84,0.82c0.53,0,0.87-0.36,0.87-0.82
					C166.41,45.15,166.09,44.79,165.57,44.79"/>
				<rect x="164.8" y="47.3" class="st0" width="1.53" height="6.03"/>
				<path class="st0" d="M171.29,47.17c-1,0-1.66,0.57-1.92,1.04h-0.04l-0.07-0.9h-1.34c0.04,0.52,0.05,1.1,0.05,1.8v4.24h1.54
					v-3.54c0-0.18,0.01-0.36,0.06-0.49c0.16-0.46,0.58-0.89,1.19-0.89c0.83,0,1.15,0.66,1.15,1.52v3.41h1.52v-3.58
					C173.43,47.85,172.34,47.17,171.29,47.17"/>
				<path class="st0" d="M179.17,48.11h-0.02c-0.29-0.49-0.83-0.94-1.74-0.94c-1.45,0-2.74,1.2-2.74,3.18
					c0,1.71,1.07,2.94,2.56,2.94c0.79,0,1.41-0.36,1.76-0.89h0.02v0.52c0,1.3-0.74,1.82-1.74,1.82c-0.73,0-1.38-0.24-1.76-0.46
					l-0.33,1.15c0.52,0.32,1.34,0.48,2.1,0.48c0.83,0,1.7-0.18,2.33-0.73c0.63-0.57,0.89-1.47,0.89-2.74v-3.42
					c0-0.83,0.02-1.32,0.05-1.73h-1.32L179.17,48.11z M178.99,50.69c0,0.18-0.02,0.38-0.06,0.54c-0.18,0.54-0.67,0.92-1.24,0.92
					c-0.95,0-1.47-0.83-1.47-1.86c0-1.23,0.63-1.97,1.49-1.97c0.64,0,1.08,0.42,1.24,0.98c0.04,0.12,0.05,0.27,0.05,0.41
					L178.99,50.69L178.99,50.69z"/>
				<polygon class="st0" points="186.29,44.99 184.76,44.99 184.76,53.33 189.72,53.33 189.72,52.05 186.29,52.05 				"/>
				<path class="st0" d="M191.57,44.79c-0.51,0-0.85,0.36-0.85,0.83c0,0.46,0.33,0.82,0.84,0.82c0.53,0,0.87-0.36,0.87-0.82
					C192.42,45.15,192.09,44.79,191.57,44.79"/>
				<rect x="190.81" y="47.3" class="st0" width="1.54" height="6.03"/>
				<path class="st0" d="M200.85,47.17c-0.49,0-0.88,0.12-1.21,0.36c-0.29,0.18-0.53,0.42-0.74,0.76h-0.02
					c-0.26-0.67-0.88-1.11-1.67-1.11c-1.02,0-1.56,0.56-1.86,1.03h-0.04l-0.06-0.89h-1.31c0.04,0.52,0.05,1.1,0.05,1.8v4.24h1.49
					v-3.57c0-0.17,0.02-0.35,0.09-0.49c0.13-0.42,0.52-0.87,1.09-0.87c0.71,0,1.04,0.6,1.04,1.44v3.49h1.49v-3.62
					c0-0.18,0.04-0.36,0.07-0.51c0.16-0.43,0.54-0.8,1.07-0.8c0.73,0,1.08,0.6,1.08,1.6v3.33h1.49v-3.55
					C202.87,47.85,201.85,47.17,200.85,47.17"/>
				<path class="st0" d="M205.24,44.79c-0.51,0-0.85,0.36-0.85,0.83c0,0.46,0.33,0.82,0.84,0.82c0.53,0,0.87-0.36,0.87-0.82
					C206.08,45.15,205.76,44.79,205.24,44.79"/>
				<rect x="204.47" y="47.3" class="st0" width="1.54" height="6.03"/>
				<path class="st0" d="M209.39,45.58l-1.49,0.36v1.36h-0.87v1.14h0.87v2.84c0,0.79,0.15,1.34,0.47,1.68
					c0.29,0.31,0.76,0.49,1.31,0.49c0.48,0,0.88-0.06,1.1-0.15l-0.02-1.16c-0.13,0.04-0.33,0.07-0.6,0.07
					c-0.58,0-0.78-0.38-0.78-1.12v-2.66h1.45V47.3h-1.45L209.39,45.58L209.39,45.58z"/>
				<path class="st0" d="M214.47,47.17c-1.93,0-2.95,1.57-2.95,3.24c0,1.85,1.15,3.05,3.11,3.05c0.87,0,1.58-0.16,2.1-0.37
					l-0.22-1.05c-0.46,0.17-0.96,0.27-1.67,0.27c-0.96,0-1.82-0.47-1.86-1.56h4.04c0.02-0.13,0.05-0.36,0.05-0.64
					C217.07,48.78,216.43,47.17,214.47,47.17 M212.99,49.68c0.06-0.62,0.46-1.47,1.4-1.47c1.02,0,1.26,0.91,1.25,1.47H212.99z"/>
				<path class="st0" d="M223.86,51.63v-7.09h-1.52v3.42h-0.02c-0.27-0.44-0.87-0.79-1.69-0.79c-1.45,0-2.71,1.2-2.7,3.22
					c0,1.86,1.14,3.08,2.58,3.08c0.88,0,1.61-0.42,1.97-1.09h0.02l0.06,0.96h1.36C223.88,52.92,223.86,52.25,223.86,51.63
					 M222.33,50.72c0,0.16-0.01,0.31-0.05,0.45c-0.15,0.66-0.69,1.08-1.31,1.08c-0.96,0-1.51-0.8-1.51-1.91
					c0-1.13,0.54-1.99,1.52-1.99c0.69,0,1.18,0.48,1.31,1.08c0.02,0.12,0.04,0.27,0.04,0.4V50.72z"/>
			</g>
		</g>
	</g>
</g>
<g>
	<polygon class="st1" points="47.37,25.27 37.47,20.3 37.34,31.64 46.44,35.84 31.69,46.71 31.69,0.01 20.73,18.5 20.73,53.46 
		40.11,53.46 57.01,40.82 	"/>
	
		<linearGradient id="SVGID_1_" gradientUnits="userSpaceOnUse" x1="52.4811" y1="46.3577" x2="52.4811" y2="31.7347" gradientTransform="matrix(1 0 0 -1 0 87.18)">
		<stop  offset="0" style="stop-color:#DBD8D6"/>
		<stop  offset="0" style="stop-color:#E5E3E1"/>
		<stop  offset="0" style="stop-color:#FFFFFF"/>
		<stop  offset="0.0532" style="stop-color:#EBEBEB"/>
		<stop  offset="0.1618" style="stop-color:#B6B6B6"/>
		<stop  offset="0.264" style="stop-color:#808080"/>
		<stop  offset="0.3585" style="stop-color:#C1C1C1"/>
		<stop  offset="0.4329" style="stop-color:#EEEEEE"/>
		<stop  offset="0.4703" style="stop-color:#FFFFFF"/>
		<stop  offset="0.5435" style="stop-color:#E9E9E9"/>
		<stop  offset="0.6959" style="stop-color:#B0B0B0"/>
		<stop  offset="0.8764" style="stop-color:#666666"/>
		<stop  offset="0.9064" style="stop-color:#7A7A7A"/>
		<stop  offset="0.9677" style="stop-color:#ACAEAD"/>
		<stop  offset="1" style="stop-color:#C9CCCB"/>
		<stop  offset="1" style="stop-color:#FFFFFF"/>
	</linearGradient>
	<polygon class="st2" points="64.85,53.45 57.01,40.82 40.11,53.46 64.85,53.46 	"/>
	
		<linearGradient id="SVGID_2_" gradientUnits="userSpaceOnUse" x1="10.3629" y1="68.6763" x2="10.3629" y2="28.1546" gradientTransform="matrix(1 0 0 -1 0 87.18)">
		<stop  offset="0" style="stop-color:#DBD8D6"/>
		<stop  offset="0" style="stop-color:#E5E3E1"/>
		<stop  offset="0" style="stop-color:#FFFFFF"/>
		<stop  offset="0.0532" style="stop-color:#EBEBEB"/>
		<stop  offset="0.1618" style="stop-color:#B6B6B6"/>
		<stop  offset="0.264" style="stop-color:#808080"/>
		<stop  offset="0.3585" style="stop-color:#C1C1C1"/>
		<stop  offset="0.4329" style="stop-color:#EEEEEE"/>
		<stop  offset="0.4703" style="stop-color:#FFFFFF"/>
		<stop  offset="0.5435" style="stop-color:#E9E9E9"/>
		<stop  offset="0.6959" style="stop-color:#B0B0B0"/>
		<stop  offset="0.8764" style="stop-color:#666666"/>
		<stop  offset="0.9064" style="stop-color:#7A7A7A"/>
		<stop  offset="0.9677" style="stop-color:#ACAEAD"/>
		<stop  offset="1" style="stop-color:#C9CCCB"/>
		<stop  offset="1" style="stop-color:#FFFFFF"/>
	</linearGradient>
	<polygon class="st3" points="0,53.46 20.73,53.46 20.73,18.5 	"/>
	
		<linearGradient id="SVGID_3_" gradientUnits="userSpaceOnUse" x1="39.5265" y1="87.18" x2="39.5265" y2="40.4742" gradientTransform="matrix(1 0 0 -1 0 87.18)">
		<stop  offset="0" style="stop-color:#DBD8D6"/>
		<stop  offset="0" style="stop-color:#E5E3E1"/>
		<stop  offset="0" style="stop-color:#FFFFFF"/>
		<stop  offset="0.0532" style="stop-color:#EBEBEB"/>
		<stop  offset="0.1618" style="stop-color:#B6B6B6"/>
		<stop  offset="0.264" style="stop-color:#808080"/>
		<stop  offset="0.3585" style="stop-color:#C1C1C1"/>
		<stop  offset="0.4329" style="stop-color:#EEEEEE"/>
		<stop  offset="0.4703" style="stop-color:#FFFFFF"/>
		<stop  offset="0.5435" style="stop-color:#E9E9E9"/>
		<stop  offset="0.6959" style="stop-color:#B0B0B0"/>
		<stop  offset="0.8764" style="stop-color:#666666"/>
		<stop  offset="0.9064" style="stop-color:#7A7A7A"/>
		<stop  offset="0.9677" style="stop-color:#ACAEAD"/>
		<stop  offset="1" style="stop-color:#C9CCCB"/>
		<stop  offset="1" style="stop-color:#FFFFFF"/>
	</linearGradient>
	<polygon class="st4" points="46.44,35.84 37.34,31.64 37.47,20.3 47.37,25.27 31.69,0 31.69,0.01 31.69,46.71 	"/>
</g>
<g>
	<g>
		<path class="st0" d="M240.72,42.7c-0.18,0-0.18,0-0.36,0c-0.18,0-0.36,0-0.36,0l0.18-1.08c0.18,0,0.18,0,0.36,0
			c0.18,0,0.18,0,0.36,0c0.54,0,0.9-0.18,1.08-0.54c0.36-0.36,0.54-0.9,0.54-1.44v-7.9h1.26v7.9c0,0.54-0.18,1.08-0.36,1.62
			c-0.18,0.54-0.54,0.9-1.08,1.08C241.79,42.52,241.25,42.7,240.72,42.7z"/>
		<path class="st0" d="M246.1,39.29V28.34h1.26v10.95H246.1z M247.18,39.29v-1.08h1.79v1.08H247.18z M249.15,39.29v-1.08h0.18
			c0,0,0,0,0,0.18v0.18v0.18v0.18v0.18C249.33,39.11,249.33,39.11,249.15,39.29L249.15,39.29z"/>
		<path class="st0" d="M249.15,39.29C248.97,39.29,248.97,39.29,249.15,39.29c-0.18,0-0.18-0.18-0.18-0.18s0,0,0-0.18v-0.18
			c0-0.18,0-0.18,0-0.18s0-0.18,0.18-0.18h0.18v0.9H249.15z M249.15,39.29v-1.08h3.77v1.08H249.15z M252.92,39.29v-1.08h0.18
			c0,0,0,0,0,0.18v0.18v0.18v0.18v0.18C253.1,39.11,253.1,39.11,252.92,39.29L252.92,39.29z"/>
		<path class="st0" d="M252.92,39.29C252.92,39.29,252.74,39.29,252.92,39.29c-0.18,0-0.18-0.18-0.18-0.18s0,0,0-0.18v-0.18
			c0-0.18,0-0.18,0-0.18s0-0.18,0.18-0.18h0.18v0.9H252.92z M252.92,39.29v-1.08h3.77v1.08H252.92z M256.69,39.29v-1.08h0.18
			c0,0,0,0,0,0.18v0.18v0.18v0.18v0.18C256.87,39.11,256.87,39.11,256.69,39.29C256.87,39.29,256.69,39.29,256.69,39.29z"/>
		<path class="st0" d="M256.69,39.29C256.69,39.29,256.51,39.29,256.69,39.29c-0.18,0-0.18-0.18-0.18-0.18s0,0,0-0.18v-0.18
			c0-0.18,0-0.18,0-0.18s0-0.18,0.18-0.18h0.18C256.69,38.21,256.69,39.29,256.69,39.29z M256.69,39.29v-1.08h8.25l-0.9,0.54v-3.23
			c0-0.72,0-1.26-0.18-1.62c-0.18-0.36-0.36-0.72-0.9-0.9c-0.54-0.18-0.9-0.18-1.62-0.18c-0.36,0-0.9,0-1.26,0
			c-0.36,0-0.72,0.18-1.08,0.18l0.72-0.72c0,0.18-0.18,0.54-0.18,0.9c0,0.36-0.18,0.72-0.18,1.26c0,0.36,0,0.9,0,1.26
			c0,0.36,0,0.9,0,1.26c0,0.36,0,0.72,0.18,1.08s0,0.54,0.18,0.72l-1.08,0.36c0-0.18-0.18-0.36-0.18-0.72
			c0-0.36-0.18-0.72-0.18-1.08c0-0.54,0-0.9,0-1.44c0-0.54,0-1.08,0-1.44c0-0.54,0.18-0.9,0.18-1.26c0-0.36,0.18-0.72,0.18-0.9
			c0.18,0,0.54-0.18,1.08-0.18c0.54,0,1.08-0.18,1.62-0.18c0.9,0,1.62,0.18,2.15,0.36c0.54,0.18,1.08,0.72,1.26,1.26
			c0.18,0.54,0.36,1.26,0.36,2.33v3.77C265.3,39.29,256.69,39.29,256.69,39.29z M265.3,39.29v-1.08h1.62v1.08H265.3z M266.92,39.29
			v-1.08h0.18c0,0,0,0,0,0.18v0.18v0.18v0.18v0.18C267.1,39.11,267.1,39.29,266.92,39.29L266.92,39.29z"/>
		<path class="st0" d="M266.92,39.29C266.92,39.29,266.74,39.29,266.92,39.29c-0.18,0-0.18,0-0.18-0.18v-0.18v-0.18
			c0-0.18,0-0.18,0-0.18v-0.18h0.18V39.29L266.92,39.29z M266.92,39.29v-1.08h7.72v1.08H266.92z M270.15,39.29
			c-0.54-0.54-0.9-1.08-1.26-1.62c-0.36-0.54-0.36-1.26-0.36-1.97c0-0.54,0.18-1.08,0.36-1.62c0.18-0.54,0.54-0.9,0.9-1.26
			c0.36-0.36,0.72-0.72,1.26-0.9c0.54-0.18,1.08-0.36,1.62-0.36c0.36,0,0.54,0,0.9,0c0.36,0,0.72,0.18,1.08,0.18l-0.36,1.08
			c-0.54,0.18-0.9,0-1.08,0c-0.18,0-0.54,0-0.72,0c-0.54,0-1.08,0.18-1.44,0.36c-0.36,0.18-0.72,0.54-1.08,1.08
			c-0.18,0.36-0.36,0.9-0.36,1.44s0.18,1.08,0.36,1.44c0.18,0.36,0.54,0.9,0.9,1.26L270.15,39.29z"/>
		<path class="st0" d="M276.43,39.29v-1.08h7.36l-0.72,0.72V28.34h1.26v10.95H276.43z M278.04,43.42v-0.9h3.05v0.72L278.04,43.42
			L278.04,43.42z M278.76,43.42c-0.18-0.18-0.36-0.36-0.36-0.54c0-0.18-0.18-0.36-0.18-0.54c0-0.36,0-0.54,0.18-0.72
			c0.18-0.18,0.36-0.36,0.54-0.54c0.18-0.18,0.54-0.18,0.72-0.18s0.36,0,0.54,0s0.36,0.18,0.36,0.18l-0.36,0.72
			c0,0-0.18,0-0.18-0.18h-0.18c-0.18,0-0.36,0-0.54,0.18s-0.18,0.36-0.18,0.54s0,0.18,0,0.36s0.18,0.18,0.18,0.36L278.76,43.42z
			 M278.94,38.21V30.5h1.26v7.72H278.94z"/>
		<path class="st0" d="M287.01,39.29V28.34h1.26v10.95H287.01z"/>
		<path class="st0" d="M293.3,42.7c-0.36,0-0.72,0-1.08,0c-0.36,0-0.9-0.18-1.26-0.18l0.18-0.9c0.54,0,1.08,0.18,1.26,0.18
			c0.36,0,0.72,0,0.9,0c0.9,0,1.44-0.18,1.79-0.54c0.36-0.36,0.54-0.72,0.54-1.44v-7.54l0.72,0.54h-2.51c-0.54,0-1.08,0-1.44,0.18
			c-0.36,0.18-0.54,0.36-0.72,0.72c-0.18,0.36-0.18,0.9-0.18,1.79c0,0.72,0,1.26,0.18,1.79c0.18,0.54,0.36,0.72,0.72,0.72
			c0.36,0.18,0.72,0.18,1.26,0.18h1.97v1.08h-1.97c-0.9,0-1.62-0.18-1.97-0.36c-0.54-0.18-0.9-0.72-1.08-1.26
			c-0.18-0.54-0.36-1.26-0.36-2.15c0-0.9,0.18-1.62,0.36-2.15c0.18-0.54,0.54-1.08,1.08-1.26c0.54-0.18,1.26-0.36,1.97-0.36h3.05
			v7.9c0,0.54-0.18,1.26-0.36,1.62c-0.36,0.54-0.72,0.72-1.26,1.08C294.55,42.52,294.01,42.7,293.3,42.7z"/>
		<path class="st0" d="M301.37,42.7c-0.18,0-0.18,0-0.36,0s-0.36,0-0.36,0l0.18-1.08c0.18,0,0.18,0,0.36,0s0.18,0,0.36,0
			c0.54,0,0.9-0.18,1.08-0.54c0.36-0.36,0.54-0.9,0.54-1.44v-7.9h1.26v7.9c0,0.54-0.18,1.08-0.36,1.62
			c-0.18,0.54-0.54,0.9-1.08,1.08C302.45,42.52,301.91,42.7,301.37,42.7z M303.88,39.29v-1.08h1.97v1.08H303.88z M305.86,39.29
			v-1.08h0.18c0,0,0,0,0,0.18s0,0.18,0,0.18v0.18v0.18v0.18C306.04,39.11,306.04,39.29,305.86,39.29
			C306.04,39.29,305.86,39.29,305.86,39.29z"/>
		<path class="st0" d="M305.86,39.29C305.86,39.29,305.68,39.29,305.86,39.29c-0.18,0-0.18,0-0.18-0.18v-0.18v-0.18
			c0-0.18,0-0.18,0-0.18v-0.18h0.18V39.29L305.86,39.29z M305.86,39.29v-1.08h2.15l-0.54,0.36v-6.82h1.26v7.54H305.86z
			 M306.39,41.98v-1.26h1.26v1.44h-1.26V41.98z M308.55,41.98v-1.26h1.26v1.44h-1.26V41.98z"/>
		<path class="st0" d="M313.39,42.7c-0.36,0-0.72,0-1.08,0c-0.36,0-0.9-0.18-1.26-0.18l0.18-0.9c0.54,0,1.08,0.18,1.26,0.18
			c0.36,0,0.72,0,0.9,0c0.9,0,1.44-0.18,1.79-0.54c0.36-0.36,0.54-0.72,0.54-1.44v-7.54l0.72,0.54h-2.51c-0.54,0-1.08,0-1.44,0.18
			c-0.36,0.18-0.54,0.36-0.72,0.72c-0.18,0.36-0.18,0.9-0.18,1.79c0,0.72,0,1.26,0.18,1.79c0.18,0.36,0.36,0.72,0.72,0.72
			c0.36,0.18,0.72,0.18,1.44,0.18h1.97v1.08h-1.97c-0.9,0-1.62-0.18-1.97-0.36c-0.54-0.36-0.9-0.72-1.26-1.26
			c-0.36-0.54-0.18-1.26-0.18-2.15c0-0.9,0.18-1.62,0.36-2.15c0.18-0.54,0.36-1.08,0.9-1.26c0.54-0.18,1.26-0.36,1.97-0.36h3.05v7.9
			c0,0.54-0.18,1.26-0.36,1.62c-0.36,0.54-0.72,0.72-1.26,1.08C314.83,42.52,314.11,42.7,313.39,42.7z M316.98,39.29v-1.08h1.62
			v1.08H316.98z M318.6,39.29v-1.08h0.18c0,0,0,0,0,0.18v0.18v0.18v0.18v0.18C318.96,39.11,318.78,39.11,318.6,39.29
			C318.78,39.29,318.78,39.29,318.6,39.29z"/>
		<path class="st0" d="M318.6,39.29L318.6,39.29c-0.18,0-0.18,0-0.18-0.18v-0.18v-0.18c0-0.18,0-0.18,0-0.18v-0.18h0.18V39.29
			L318.6,39.29z M318.6,39.29v-1.08h10.05l-1.08,1.08V35.7c0-0.72,0-1.26-0.18-1.62c-0.18-0.36-0.54-0.72-0.72-0.9
			c-0.54-0.36-0.9-0.36-1.44-0.36s-0.9,0-1.26,0.18c-0.36,0.18-0.72,0.36-1.08,0.54c-0.36,0.18-0.54,0.54-0.9,0.72
			c-0.18,0.36-0.54,0.72-0.72,0.9c-0.18,0.36-0.54,0.54-0.72,0.72l-0.36-1.08c0.36-0.36,0.72-0.72,0.9-1.26
			c0.36-0.18,0.72-0.54,1.26-0.72c0.36-0.36,0.9-0.54,1.26-0.72c0.36-0.18,1.08-0.36,1.62-0.36c0.72,0,1.26,0.18,1.79,0.36
			c0.54,0.18,0.9,0.54,1.08,0.9s0.36,0.9,0.54,1.26c0.18,0.54,0.18,0.9,0.18,1.26v3.59L318.6,39.29L318.6,39.29z M319.67,38.21
			v-9.87h1.26v9.87H319.67L319.67,38.21z M328.29,39.29v-1.08h1.62v1.08H328.29z M330.08,39.29v-1.08h0.18c0,0,0,0,0,0.18
			s0,0.18,0,0.18v0.18v0.18v0.18C330.26,39.11,330.26,39.29,330.08,39.29L330.08,39.29z"/>
		<path class="st0" d="M330.08,39.29C329.9,39.29,329.9,39.29,330.08,39.29c-0.18,0-0.18,0-0.18-0.18v-0.18v-0.18
			c0-0.18,0-0.18,0-0.18v-0.18h0.18V39.29L330.08,39.29z M330.08,39.29v-1.08h2.15l-0.54,0.36v-6.82h1.26v7.54
			C332.77,39.29,330.08,39.29,330.08,39.29z M330.62,30.32v-1.26h1.26v1.44C331.88,30.32,330.62,30.32,330.62,30.32z M332.59,30.32
			v-1.26h1.26v1.44C333.85,30.32,332.59,30.32,332.59,30.32z M332.77,39.29v-1.08h1.62v1.08H332.77z M334.39,39.29v-1.08h0.18
			c0,0,0,0,0,0.18s0,0.18,0,0.18v0.18v0.18v0.18C334.75,39.11,334.57,39.29,334.39,39.29C334.57,39.29,334.57,39.29,334.39,39.29z"
			/>
		<path class="st0" d="M334.39,39.29L334.39,39.29c-0.18,0-0.18,0-0.18-0.18v-0.18v-0.18c0-0.18,0-0.18,0-0.18v-0.18h0.18V39.29
			L334.39,39.29z M334.39,39.29v-1.08h1.79v1.08H334.39z M336.36,39.29V28.34h1.26v10.95H336.36z"/>
		<path class="st0" d="M340.13,39.29V28.34h1.26v10.95H340.13z"/>
		<path class="st0" d="M346.59,39.29v-1.08h7v1.08H346.59z M348.57,39.11c-0.36-0.54-0.72-0.9-0.9-1.44s-0.36-0.9-0.36-1.44
			s0-0.9,0.18-1.44c0.18-0.54,0.36-0.72,0.72-1.08c0.36-0.36,0.72-0.54,1.08-0.72c0.72-0.18,1.08-0.18,1.62-0.18
			c0.36,0,0.72,0,1.08,0.18s0.72,0.18,0.9,0.36l-0.54,0.9c-0.18-0.18-0.36-0.18-0.72-0.36c-0.18,0-0.54-0.18-0.72-0.18
			c-0.54,0-0.9,0.18-1.26,0.36c-0.36,0.18-0.72,0.54-0.9,0.9c-0.18,0.36-0.36,0.72-0.36,1.26c0,0.36,0,0.72,0.18,1.08
			c0.18,0.36,0.36,0.72,0.72,1.08L348.57,39.11z"/>
		<path class="st0" d="M355.74,39.29V28.34H357v10.95H355.74z M356.82,39.29v-1.08h1.79v1.08H356.82z M358.79,39.29v-1.08h0.18
			c0,0,0,0,0,0.18v0.18v0.18v0.18v0.18C358.97,39.11,358.97,39.11,358.79,39.29L358.79,39.29z"/>
		<path class="st0" d="M358.79,39.29C358.61,39.29,358.61,39.29,358.79,39.29c-0.18,0-0.18,0-0.18-0.18v-0.18v-0.18
			c0-0.18,0-0.18,0-0.18v-0.18h0.18V39.29L358.79,39.29z M358.79,39.29v-1.08h3.77v1.08H358.79z M362.56,39.29v-1.08h0.18
			c0,0,0,0,0,0.18s0,0.18,0,0.18v0.18v0.18v0.18C362.74,39.11,362.74,39.29,362.56,39.29C362.74,39.29,362.56,39.29,362.56,39.29z"
			/>
		<path class="st0" d="M362.56,39.29C362.38,39.29,362.38,39.29,362.56,39.29c-0.18,0-0.18,0-0.18-0.18v-0.18v-0.18
			c0-0.18,0-0.18,0-0.18v-0.18h0.18V39.29L362.56,39.29z M362.56,39.29v-1.08h3.77v1.08H362.56z M366.33,39.29v-1.08h0.18
			c0,0,0,0,0,0.18s0,0.18,0,0.18v0.18v0.18v0.18C366.51,39.11,366.51,39.29,366.33,39.29C366.51,39.29,366.33,39.29,366.33,39.29z"
			/>
		<path class="st0" d="M366.33,39.29C366.33,39.29,366.15,39.29,366.33,39.29c-0.18,0-0.18,0-0.18-0.18v-0.18v-0.18
			c0-0.18,0-0.18,0-0.18v-0.18h0.18V39.29L366.33,39.29z M366.33,39.29v-1.08h7.54l-0.36,0.36v-2.69c0-0.54,0-1.08-0.18-1.44
			c-0.18-0.36-0.36-0.54-0.72-0.72c-0.36-0.18-0.72-0.18-1.08-0.18h-3.23l-0.9-1.26l0.72-1.26c0.18-0.18,0.18-0.54,0.36-0.72
			c0.18-0.18,0.36-0.54,0.54-0.72c0.18-0.36,0.36-0.72,0.72-1.08l1.08,0.54c-0.36,0.54-0.54,0.9-0.72,1.08
			c-0.18,0.36-0.36,0.54-0.54,0.72c-0.18,0.18-0.18,0.36-0.36,0.72l-0.9,1.26l-0.36-0.54h3.59c0.72,0,1.08,0.18,1.62,0.36
			c0.36,0.18,0.72,0.54,0.9,0.9c0.18,0.36,0.36,0.72,0.54,1.08c0.18,0.36,0.18,0.72,0.18,1.26v3.41L366.33,39.29L366.33,39.29z"/>
		<path class="st0" d="M375.84,42.7c-0.18,0-0.18,0-0.36,0s-0.36,0-0.36,0l0.18-1.08c0.18,0,0.18,0,0.36,0c0.18,0,0.18,0,0.36,0
			c0.54,0,0.9-0.18,1.08-0.54c0.18-0.36,0.36-0.9,0.36-1.62v-7.72h1.26v7.9c0,0.54-0.18,1.08-0.36,1.62
			c-0.18,0.54-0.54,0.9-1.08,1.08C376.92,42.52,376.56,42.7,375.84,42.7z M378.71,34.27v-1.08h3.23v1.08
			C381.94,34.27,378.71,34.27,378.71,34.27z M381.94,39.29v-7.54h1.26v7.54H381.94z M383.2,39.29v-1.08h1.79
			c0.36,0,0.54,0,0.72-0.18c0.18-0.18,0.36-0.36,0.36-0.54c0-0.36,0.18-0.72,0.18-1.26v-3.59h1.26v3.59c0,0.72,0,1.44-0.18,1.79
			c-0.18,0.54-0.36,0.72-0.72,1.08c-0.36,0.18-0.9,0.36-1.44,0.36L383.2,39.29L383.2,39.29z M384.99,30.32v-1.26h1.26v1.44
			C386.25,30.32,384.99,30.32,384.99,30.32z M388.04,39.29c-0.36,0-0.72,0-1.08-0.18s-0.72-0.36-0.9-0.54l0.72-0.72
			c0.18,0.18,0.36,0.36,0.54,0.36c0.36,0,0.54,0,0.72,0h2.69l-0.54,0.54v-3.59c0-0.18,0-0.36,0-0.72c0-0.36,0-0.72-0.18-1.08
			c-0.18-0.36-0.18-0.9-0.18-1.26l1.08-0.18c0,0.36,0.18,0.72,0.18,1.26s0.18,0.9,0.18,1.26s0,0.72,0,0.9v4.13
			C391.45,39.29,388.04,39.29,388.04,39.29z M386.25,28.34v-1.26h1.08v1.26H386.25L386.25,28.34z M387.15,30.32v-1.26h1.26v1.44
			C388.4,30.32,387.15,30.32,387.15,30.32z"/>
		<path class="st0" d="M239.28,53.47v-6.28h2.33c0.54,0,0.9,0,1.26,0.18s0.54,0.36,0.72,0.72c0.18,0.36,0.36,0.54,0.36,1.08
			c0,0.36,0.18,0.72,0.18,1.26c0,0.54,0,0.9-0.18,1.26c-0.18,0.36-0.18,0.54-0.54,0.9c-0.18,0.36-0.36,0.54-0.72,0.72
			c-0.36,0.18-0.72,0.18-1.26,0.18H239.28z M240,52.93h1.62c0.36,0,0.54,0,0.9-0.18c0.18-0.18,0.18-0.36,0.36-0.72
			c0.18-0.18,0.18-0.54,0.18-0.9s0-0.72,0-1.08c0-0.36,0-0.72,0-0.9c0-0.36-0.18-0.54-0.18-0.72c-0.18-0.18-0.36-0.36-0.54-0.54
			s-0.54-0.18-0.72-0.18H240V52.93z"/>
		<path class="st0" d="M246.82,53.65c-0.54,0-0.9,0-1.08-0.18c-0.18-0.18-0.54-0.54-0.54-0.72c-0.18-0.36-0.18-0.72-0.18-1.26
			s0-1.08,0.18-1.44c0.18-0.36,0.36-0.54,0.72-0.72c0.36-0.18,0.72-0.18,1.08-0.18c0.54,0,1.08,0.18,1.44,0.54
			c0.36,0.36,0.54,0.9,0.54,1.62v0.54h-3.23c0,0.54,0.18,0.9,0.18,1.08c0.18,0.18,0.54,0.36,0.9,0.36c0.18,0,0.36,0,0.54,0
			s0.36,0,0.54,0c0.18,0,0.36,0,0.54,0v0.54c-0.18,0-0.36,0-0.54,0c-0.18,0-0.36,0-0.72,0S247,53.65,246.82,53.65z M245.74,50.95
			h2.33c0-0.54-0.18-0.9-0.18-1.26c-0.18-0.18-0.54-0.36-0.9-0.36c-0.18,0-0.54,0-0.72,0.18c-0.18,0.18-0.36,0.18-0.36,0.54
			C245.74,50.24,245.74,50.6,245.74,50.95z"/>
		<path class="st0" d="M250.77,53.47l-1.26-4.67h0.72l1.08,4.13h0.36l1.08-4.13h0.72l-1.26,4.67
			C252.2,53.47,250.77,53.47,250.77,53.47z"/>
		<path class="st0" d="M256.15,53.65c-0.54,0-0.9,0-1.08-0.18c-0.18-0.18-0.54-0.54-0.54-0.72c-0.18-0.36-0.18-0.72-0.18-1.26
			s0-1.08,0.18-1.44c0.18-0.36,0.36-0.54,0.72-0.72s0.72-0.18,1.08-0.18c0.54,0,1.08,0.18,1.44,0.54c0.36,0.36,0.54,0.9,0.54,1.62
			v0.54h-3.41c0,0.54,0.18,0.9,0.18,1.08c0.18,0.18,0.54,0.36,0.9,0.36c0.18,0,0.36,0,0.54,0c0.18,0,0.36,0,0.54,0s0.36,0,0.54,0
			v0.54c-0.18,0-0.36,0-0.54,0s-0.36,0-0.72,0C255.97,53.83,256.33,53.65,256.15,53.65z M254.89,50.95h2.33
			c0-0.54-0.18-0.9-0.18-1.26c-0.18-0.18-0.54-0.36-0.9-0.36c-0.18,0-0.54,0-0.72,0.18c-0.18,0.18-0.36,0.18-0.36,0.54
			C254.89,50.24,254.89,50.6,254.89,50.95z"/>
		<path class="st0" d="M259.2,53.47v-6.64h0.72v6.64H259.2z"/>
		<path class="st0" d="M263.15,53.65c-0.54,0-0.9,0-1.26-0.18c-0.36-0.18-0.54-0.54-0.54-0.9c-0.18-0.36-0.18-0.9-0.18-1.44
			s0-1.08,0.18-1.26c0.18-0.18,0.36-0.54,0.72-0.72c0.36-0.18,0.72-0.18,1.26-0.18c0.54,0,0.9,0,1.26,0.18
			c0.36,0.18,0.54,0.36,0.72,0.72s0.18,0.72,0.18,1.26s0,1.08-0.18,1.44s-0.36,0.72-0.54,0.9
			C264.04,53.47,263.69,53.65,263.15,53.65z M263.15,53.11c0.36,0,0.72,0,0.72-0.18c0.18-0.18,0.36-0.36,0.36-0.54
			c0-0.36,0-0.72,0-1.08s0-0.72-0.18-1.08c0-0.18-0.18-0.36-0.36-0.54c-0.18,0-0.36-0.18-0.72-0.18c-0.36,0-0.54,0-0.72,0.18
			c-0.18,0.18-0.36,0.36-0.36,0.54c0,0.18-0.18,0.54-0.18,1.08c0,0.36,0,0.72,0,1.08c0,0.18,0.18,0.54,0.36,0.54
			C262.43,52.93,262.79,53.11,263.15,53.11z"/>
		<path class="st0" d="M266.2,55.62v-6.64h0.72v0.36c0.18,0,0.18-0.18,0.36-0.18c0.18,0,0.36-0.18,0.54-0.18s0.36,0,0.54,0
			c0.36,0,0.72,0,0.9,0.18c0.18,0.18,0.36,0.36,0.54,0.72c0.18,0.36,0.18,0.72,0.18,1.44c0,0.54,0,1.08-0.18,1.44
			c-0.18,0.36-0.36,0.54-0.72,0.72c-0.36,0.18-0.72,0.18-1.26,0.18c-0.18,0-0.36,0-0.54,0c-0.18,0-0.36,0-0.54,0v2.15L266.2,55.62
			L266.2,55.62z M267.99,52.93c0.36,0,0.54,0,0.72-0.18s0.36-0.36,0.36-0.54c0.18-0.18,0.18-0.72,0.18-1.08
			c0-0.72-0.18-1.08-0.18-1.26c-0.18-0.18-0.54-0.36-0.72-0.36s-0.36,0-0.54,0s-0.36,0-0.54,0.18c-0.18,0-0.18,0.18-0.36,0.18v3.05
			c0.18,0,0.18,0,0.36,0C267.63,52.93,267.81,52.93,267.99,52.93z"/>
		<path class="st0" d="M271.22,53.47V48.8h0.72v0.36c0.18,0,0.18-0.18,0.36-0.18c0.18,0,0.36-0.18,0.54-0.18s0.36,0,0.54,0
			c0.36,0,0.54,0,0.72,0.18c0.18,0,0.36,0.18,0.54,0.36c0.18,0,0.18-0.18,0.54-0.18c0.18,0,0.36-0.18,0.54-0.18s0.36,0,0.54,0
			c0.36,0,0.54,0,0.72,0.18c0.18,0,0.36,0.18,0.54,0.36c0.18,0.18,0.18,0.36,0.18,0.72c0,0.36,0,0.72,0,1.08v2.51h-0.72v-2.51
			c0-0.36,0-0.72,0-0.9s-0.18-0.36-0.18-0.54c-0.18-0.18-0.36-0.18-0.72-0.18c-0.18,0-0.36,0-0.54,0s-0.36,0-0.54,0.18
			c-0.18,0.18-0.18,0.18-0.36,0.18c0,0.18,0,0.36,0,0.54s0,0.54,0,0.72v2.51h-0.72v-2.33c0-0.36,0-0.72,0-1.08
			c0-0.18-0.18-0.36-0.18-0.54s-0.36-0.18-0.72-0.18c-0.18,0-0.36,0-0.54,0s-0.36,0-0.36,0.18c-0.18,0-0.18,0.18-0.36,0.18v3.77
			L271.22,53.47L271.22,53.47z"/>
		<path class="st0" d="M280.55,53.65c-0.54,0-0.9,0-1.08-0.18c-0.18-0.18-0.54-0.54-0.54-0.72c-0.18-0.36-0.18-0.72-0.18-1.26
			s0-1.08,0.18-1.44c0.18-0.36,0.36-0.54,0.72-0.72c0.36-0.18,0.72-0.18,1.08-0.18c0.54,0,1.08,0.18,1.44,0.54
			c0.36,0.36,0.54,0.9,0.54,1.62v0.54h-3.05c0,0.54,0.18,0.9,0.18,1.08c0.18,0.18,0.54,0.36,0.9,0.36c0.18,0,0.36,0,0.54,0
			s0.36,0,0.54,0s0.36,0,0.54,0v0.54c-0.18,0-0.36,0-0.54,0c-0.18,0-0.36,0-0.72,0C280.73,53.83,280.91,53.65,280.55,53.65z
			 M279.48,50.95h2.33c0-0.54-0.18-0.9-0.18-1.26c-0.18-0.18-0.54-0.36-0.9-0.36c-0.18,0-0.54,0-0.72,0.18
			c-0.18,0.18-0.36,0.18-0.36,0.54C279.48,50.24,279.48,50.6,279.48,50.95z"/>
		<path class="st0" d="M283.78,53.47V48.8h0.72v0.36c0.18,0,0.18-0.18,0.36-0.18c0.18,0,0.36-0.18,0.54-0.18s0.36,0,0.54,0
			c0.36,0,0.54,0,0.72,0.18c0.18,0,0.36,0.18,0.54,0.36c0.18,0.18,0.18,0.36,0.18,0.72s0,0.72,0,1.08v2.51h-0.72v-2.51
			c0-0.36,0-0.72,0-0.9s-0.18-0.36-0.18-0.54c-0.18-0.18-0.36-0.18-0.72-0.18c-0.18,0-0.36,0-0.54,0s-0.36,0-0.54,0.18
			s-0.18,0.18-0.36,0.18v3.77C284.5,53.47,283.78,53.47,283.78,53.47z"/>
		<path class="st0" d="M290.24,53.65c-0.36,0-0.54,0-0.72-0.18c-0.18-0.18-0.36-0.18-0.36-0.54c0-0.18-0.18-0.54-0.18-1.08v-2.51
			h-0.72V48.8h0.72v-1.44h0.72v1.44h1.44v0.54h-1.44v2.15c0,0.36,0,0.54,0,0.72c0,0.18,0,0.36,0.18,0.36c0,0,0.18,0.18,0.36,0.18
			h0.18c0,0,0.18,0,0.36,0c0.18,0,0.18,0,0.18,0v0.54c0,0-0.18,0-0.36,0c-0.18,0-0.18,0-0.36,0
			C290.42,53.65,290.24,53.65,290.24,53.65z"/>
		<path class="st0" d="M296.17,53.65c-0.54,0-1.08,0-1.44-0.18c-0.36-0.18-0.54-0.36-0.72-0.72c-0.18-0.36-0.18-0.72-0.18-1.08
			c0-0.36,0-0.72,0.18-0.9c0.18-0.18,0.18-0.36,0.54-0.54c0.18-0.18,0.54-0.18,0.72-0.36c-0.18-0.18-0.18-0.36-0.36-0.54
			c0-0.18-0.18-0.36-0.18-0.36c0-0.18,0-0.36,0-0.54s0-0.54,0.18-0.72c0.18-0.18,0.36-0.36,0.54-0.54s0.54-0.18,0.9-0.18
			c0.36,0,0.72,0,0.9,0.18s0.36,0.36,0.54,0.54c0.18,0.18,0.18,0.54,0.18,0.72c0,0.18,0,0.36,0,0.54s-0.18,0.36-0.18,0.54
			c-0.18,0.18-0.18,0.18-0.54,0.36c-0.18,0.18-0.36,0.18-0.72,0.36l1.44,1.44c0-0.18,0-0.18,0.18-0.36c0.18-0.18,0-0.36,0.18-0.54
			c0-0.18,0-0.36,0-0.54h0.72c0,0.18,0,0.54-0.18,0.72c-0.18,0.18-0.18,0.54-0.18,0.72s-0.18,0.36-0.18,0.54l1.26,1.08l-0.36,0.54
			l-1.26-1.26c-0.18,0.36-0.54,0.54-0.9,0.72C296.88,53.47,296.53,53.65,296.17,53.65z M295.99,52.93c0.36,0,0.72,0,0.9-0.18
			s0.54-0.36,0.72-0.54l-1.97-1.97c-0.18,0-0.54,0.18-0.72,0.36c-0.18,0.18-0.36,0.18-0.36,0.36c0,0.18-0.18,0.36-0.18,0.72
			c0,0.54,0.18,0.72,0.36,1.08C295.09,52.93,295.45,52.93,295.99,52.93z M296.17,49.7c0.18-0.18,0.54-0.18,0.72-0.36
			c0.18-0.18,0.36-0.18,0.36-0.36s0.18-0.36,0.18-0.54s0-0.54-0.18-0.54c-0.18-0.18-0.36-0.18-0.72-0.18c-0.36,0-0.54,0-0.72,0.18
			s-0.18,0.36-0.18,0.72c0,0.18,0,0.18,0,0.36v0.18c0,0,0.18,0.18,0.18,0.36C295.81,49.52,295.99,49.52,296.17,49.7z"/>
		<path class="st0" d="M304.78,53.65c-0.54,0-0.9,0-1.26-0.18c-0.36-0.18-0.54-0.36-0.72-0.72c-0.18-0.18-0.36-0.54-0.36-1.08
			c0-0.36-0.18-0.9-0.18-1.44c0-0.54,0-1.08,0.18-1.44c0-0.36,0.18-0.72,0.36-1.08c0.18-0.18,0.36-0.54,0.72-0.72
			c0.36-0.18,0.72-0.18,1.26-0.18c0.18,0,0.54,0,0.72,0s0.36,0,0.54,0s0.36,0,0.54,0.18v0.54c-0.18,0-0.36,0-0.54,0s-0.36,0-0.54,0
			s-0.36,0-0.54,0c-0.36,0-0.72,0-0.9,0.18c-0.18,0.18-0.36,0.18-0.54,0.54c-0.18,0.18-0.18,0.54-0.18,0.9c0,0.36,0,0.72,0,1.26
			c0,0.54,0,0.9,0,1.26c0,0.36,0.18,0.54,0.18,0.9c0.18,0.18,0.36,0.36,0.54,0.54c0.18,0.18,0.54,0.18,0.9,0.18c0.18,0,0.54,0,0.9,0
			c0.36,0,0.54,0,0.72-0.18v0.72c-0.18,0-0.36,0-0.54,0.18c-0.18,0-0.36,0-0.54,0C305.14,53.65,304.96,53.65,304.78,53.65z"/>
		<path class="st0" d="M309.45,53.65c-0.54,0-0.9,0-1.26-0.18c-0.36-0.18-0.54-0.54-0.54-0.9c-0.18-0.36-0.18-0.9-0.18-1.44
			s0-1.08,0.18-1.26c0.18-0.36,0.36-0.54,0.72-0.72c0.36-0.18,0.72-0.18,1.26-0.18c0.54,0,0.9,0,1.26,0.18
			c0.36,0.18,0.54,0.36,0.72,0.72c0.18,0.36,0.18,0.72,0.18,1.26s0,1.08-0.18,1.44s-0.36,0.72-0.54,0.9
			C310.34,53.47,309.98,53.65,309.45,53.65z M309.45,53.11c0.36,0,0.72,0,0.72-0.18c0.18-0.18,0.36-0.36,0.36-0.54
			c0-0.18,0-0.72,0-1.08s0-0.72-0.18-1.08c0-0.18-0.18-0.36-0.36-0.54s-0.36-0.18-0.72-0.18c-0.36,0-0.54,0-0.72,0.18
			s-0.36,0.36-0.36,0.54c0,0.18-0.18,0.54-0.18,1.08c0,0.36,0,0.72,0,1.08c0,0.18,0.18,0.54,0.36,0.54
			C308.73,52.93,309.09,53.11,309.45,53.11z"/>
		<path class="st0" d="M312.5,53.47V48.8h0.72v0.36c0.18,0,0.18-0.18,0.36-0.18s0.36-0.18,0.54-0.18s0.36,0,0.54,0
			c0.36,0,0.54,0,0.72,0.18c0.18,0,0.36,0.18,0.54,0.36c0,0.18,0.18,0.36,0.18,0.72s0,0.72,0,1.08v2.51h-0.72v-2.51
			c0-0.36,0-0.72,0-0.9s-0.18-0.36-0.18-0.54c-0.18-0.18-0.36-0.18-0.72-0.18c-0.18,0-0.36,0-0.54,0s-0.36,0-0.54,0.18
			c-0.18,0-0.18,0.18-0.36,0.18v3.77C313.39,53.47,312.5,53.47,312.5,53.47z"/>
		<path class="st0" d="M318.96,53.65c-0.18,0-0.36,0-0.54,0s-0.36,0-0.54,0s-0.36,0-0.54,0v-0.54c0.18,0,0.36,0,0.54,0
			s0.36,0,0.54,0s0.36,0,0.54,0c0.18,0,0.54,0,0.72,0c0.18,0,0.36-0.18,0.36-0.18s0.18-0.18,0.18-0.54c0-0.18,0-0.18-0.18-0.36
			c0-0.18-0.18-0.18-0.36-0.18c-0.18,0-0.36-0.18-0.72-0.18c-0.36,0-0.72-0.18-0.9-0.18c-0.18,0-0.36-0.18-0.54-0.36
			c-0.18-0.18-0.18-0.36-0.18-0.72c0-0.36,0-0.54,0.18-0.9c0.18-0.18,0.36-0.36,0.72-0.36c0.18,0,0.54-0.18,0.72-0.18
			c0.18,0,0.36,0,0.54,0s0.36,0,0.54,0s0.36,0,0.54,0v0.54c-0.18,0-0.36,0-0.54,0s-0.36,0-0.54,0s-0.36,0-0.54,0s-0.36,0-0.54,0
			s-0.18,0.18-0.36,0.18c0,0.18-0.18,0.18-0.18,0.36s0,0.18,0.18,0.36c0,0,0.18,0.18,0.36,0.18s0.36,0.18,0.72,0.18
			c0.36,0,0.72,0.18,0.9,0.18s0.36,0.18,0.54,0.36c0.18,0.18,0.18,0.36,0.18,0.72s0,0.72-0.18,0.9s-0.36,0.36-0.54,0.54
			C319.67,53.65,319.49,53.65,318.96,53.65z"/>
		<path class="st0" d="M323.44,53.65c-0.36,0-0.54,0-0.72-0.18c-0.18-0.18-0.36-0.18-0.36-0.54c0-0.18-0.18-0.54-0.18-1.08v-2.51
			h-0.72V48.8h0.72v-1.44h0.72v1.44h1.44v0.54h-1.44v2.15c0,0.36,0,0.54,0,0.72c0,0.18,0,0.36,0.18,0.36c0,0,0.18,0.18,0.36,0.18
			h0.18c0.18,0,0.18,0,0.36,0c0.18,0,0.18,0,0.18,0v0.54c0,0-0.18,0-0.36,0s-0.18,0-0.36,0C323.62,53.65,323.62,53.65,323.44,53.65z
			"/>
		<path class="st0" d="M325.24,53.47V48.8h0.72v0.54c0.18,0,0.18-0.18,0.54-0.18c0.18-0.18,0.36-0.18,0.54-0.18s0.36-0.18,0.72-0.18
			v0.72c-0.18,0-0.36,0.18-0.72,0.18c-0.36,0-0.36,0.18-0.54,0.18c-0.18,0-0.36,0.18-0.54,0.18v3.41
			C325.95,53.47,325.24,53.47,325.24,53.47z"/>
		<path class="st0" d="M329.9,53.65c-0.36,0-0.72,0-0.9-0.18c-0.18-0.18-0.36-0.36-0.36-0.72c0-0.36-0.18-0.72-0.18-1.26v-2.51h0.72
			v2.51c0,0.36,0,0.72,0,1.08c0,0.18,0.18,0.36,0.18,0.54c0.18,0.18,0.36,0.18,0.54,0.18c0.18,0,0.54,0,0.72-0.18
			c0.18,0,0.36-0.18,0.54-0.18v-3.77h0.72v4.67h-0.72v-0.36c-0.18,0.18-0.36,0.18-0.72,0.36C330.44,53.65,330.26,53.65,329.9,53.65z
			"/>
		<path class="st0" d="M335.11,53.65c-0.54,0-0.9,0-1.08-0.18c-0.36-0.18-0.54-0.36-0.54-0.72c-0.18-0.36-0.18-0.9-0.18-1.44
			s0-1.08,0.18-1.44s0.36-0.54,0.54-0.72c0.36-0.18,0.72-0.18,1.08-0.18c0.18,0,0.18,0,0.36,0s0.36,0,0.54,0s0.36,0,0.36,0v0.54
			c-0.18,0-0.18,0-0.36,0s-0.18,0-0.36,0c-0.18,0-0.18,0-0.36,0c-0.36,0-0.72,0-0.9,0.18c-0.18,0.18-0.36,0.36-0.36,0.54
			s-0.18,0.54-0.18,1.08c0,0.54,0,0.9,0.18,1.08c0,0.18,0.18,0.54,0.36,0.54c0.18,0.18,0.54,0.18,0.9,0.18c0,0,0.18,0,0.36,0
			c0.18,0,0.18,0,0.36,0s0.18,0,0.36,0v0.54c-0.18,0-0.18,0-0.36,0s-0.36,0-0.54,0C335.47,53.65,335.29,53.65,335.11,53.65z"/>
		<path class="st0" d="M339.05,53.65c-0.36,0-0.54,0-0.72-0.18c-0.18-0.18-0.36-0.18-0.36-0.54c0-0.18-0.18-0.54-0.18-1.08v-2.51
			h-0.72V48.8h0.72v-1.44h0.72v1.44h1.44v0.54h-1.44v2.15c0,0.36,0,0.54,0,0.72c0,0.18,0,0.36,0.18,0.36c0,0,0.18,0.18,0.36,0.18
			h0.18c0.18,0,0.18,0,0.36,0s0.18,0,0.18,0v0.54c0,0-0.18,0-0.36,0s-0.18,0-0.36,0C339.23,53.65,339.05,53.65,339.05,53.65z"/>
		<path class="st0" d="M340.85,47.9v-0.9h0.72v0.9H340.85z M340.85,53.47V48.8h0.72v4.67H340.85z"/>
		<path class="st0" d="M344.62,53.65c-0.54,0-0.9,0-1.26-0.18c-0.36-0.18-0.54-0.54-0.54-0.9c-0.18-0.36-0.18-0.9-0.18-1.44
			s0-1.08,0.18-1.26c0.18-0.36,0.36-0.54,0.72-0.72s0.72-0.18,1.26-0.18c0.54,0,0.9,0,1.26,0.18c0.36,0.18,0.54,0.36,0.72,0.72
			s0.18,0.72,0.18,1.26s0,1.08-0.18,1.44s-0.36,0.72-0.54,0.9C345.51,53.47,345.16,53.65,344.62,53.65z M344.62,53.11
			c0.36,0,0.72,0,0.72-0.18c0.18-0.18,0.36-0.36,0.36-0.54c0-0.36,0-0.72,0-1.08s0-0.72-0.18-1.08c0-0.18-0.18-0.36-0.36-0.54
			s-0.36-0.18-0.72-0.18c-0.36,0-0.54,0-0.72,0.18s-0.36,0.36-0.36,0.54c0,0.18-0.18,0.54-0.18,1.08c0,0.36,0,0.72,0,1.08
			c0,0.18,0.18,0.54,0.36,0.54C344.08,52.93,344.26,53.11,344.62,53.11z"/>
		<path class="st0" d="M347.85,53.47V48.8h0.72v0.36c0.18,0,0.18-0.18,0.36-0.18c0.18,0,0.36-0.18,0.54-0.18s0.36,0,0.54,0
			c0.36,0,0.54,0,0.72,0.18c0.18,0,0.36,0.18,0.54,0.36c0.18,0.18,0.18,0.36,0.18,0.72s0,0.72,0,1.08v2.51h-0.72v-2.51
			c0-0.36,0-0.72,0-0.9s-0.18-0.36-0.18-0.54c-0.18-0.18-0.36-0.18-0.72-0.18c-0.18,0-0.36,0-0.54,0s-0.36,0-0.54,0.18
			c-0.18,0-0.18,0.18-0.36,0.18v3.77C348.57,53.47,347.85,53.47,347.85,53.47z"/>
		<path class="st0" d="M354.31,53.65c-0.18,0-0.36,0-0.54,0s-0.36,0-0.54,0c-0.18,0-0.36,0-0.54,0v-0.54c0.18,0,0.36,0,0.54,0
			c0.18,0,0.36,0,0.54,0s0.36,0,0.54,0s0.54,0,0.72,0s0.36-0.18,0.36-0.18c0-0.18,0.18-0.18,0.18-0.54c0-0.18,0-0.18-0.18-0.36
			s-0.18-0.18-0.36-0.18s-0.36-0.18-0.72-0.18c-0.36,0-0.72-0.18-0.9-0.18s-0.36-0.18-0.54-0.36s-0.18-0.36-0.18-0.72
			c0-0.36,0-0.54,0.18-0.9c0.18-0.18,0.36-0.36,0.72-0.36c0.18,0,0.54-0.18,0.72-0.18s0.36,0,0.54,0c0.18,0,0.36,0,0.54,0
			s0.36,0,0.54,0v0.54c-0.18,0-0.36,0-0.54,0c-0.18,0-0.36,0-0.54,0c-0.18,0-0.36,0-0.54,0s-0.36,0-0.54,0s-0.18,0.18-0.36,0.18
			c0,0.18-0.18,0.18-0.18,0.36s0,0.18,0.18,0.36c0,0,0.18,0.18,0.36,0.18s0.36,0.18,0.72,0.18s0.72,0.18,0.9,0.18
			s0.36,0.18,0.54,0.36c0.18,0.18,0.18,0.36,0.18,0.72s0,0.72-0.18,0.9s-0.36,0.36-0.54,0.54
			C355.03,53.65,354.67,53.65,354.31,53.65z"/>
		<path class="st0" d="M359.33,53.47v-6.28h2.33c0.54,0,0.9,0,1.26,0.18s0.54,0.36,0.72,0.72c0.18,0.36,0.18,0.72,0.18,1.26
			c0,0.54,0,0.9-0.18,1.26c-0.18,0.36-0.36,0.54-0.72,0.72c-0.36,0.18-0.72,0.18-1.26,0.18h-1.62v2.15L359.33,53.47L359.33,53.47z
			 M360.05,50.77h1.62c0.54,0,0.72-0.18,1.08-0.36c0.18-0.18,0.36-0.72,0.36-1.08c0-0.54-0.18-0.9-0.36-1.08s-0.54-0.36-1.08-0.36
			h-1.62V50.77z"/>
		<path class="st0" d="M365.79,53.65c-0.36,0-0.72-0.18-1.08-0.36c-0.36-0.18-0.36-0.54-0.36-1.08c0-0.36,0-0.54,0.18-0.72
			c0.18-0.18,0.18-0.36,0.54-0.54c0.18-0.18,0.54-0.18,0.72-0.18l1.44-0.18v-0.36c0-0.36,0-0.54-0.18-0.72s-0.36-0.18-0.54-0.18
			c-0.18,0-0.36,0-0.54,0c-0.18,0-0.36,0-0.54,0c-0.18,0-0.36,0-0.54,0V48.8c0.18,0,0.36,0,0.54-0.18c0.18-0.18,0.36,0,0.72,0
			c0.18,0,0.54,0,0.72,0c0.36,0,0.72,0,0.9,0.18s0.36,0.18,0.54,0.54c0.18,0.18,0.18,0.54,0.18,0.9v2.33c0,0.18,0,0.18,0.18,0.36
			c0.18,0,0.18,0.18,0.36,0.18v0.54h-0.18h-0.18h-0.18c0,0-0.18,0-0.18-0.18l-0.18-0.18c-0.18,0-0.18,0.18-0.54,0.18
			c-0.18,0-0.36,0.18-0.54,0.18C366.15,53.65,365.97,53.65,365.79,53.65z M365.97,53.11c0.18,0,0.36,0,0.54,0
			c0.18,0,0.36,0,0.54-0.18c0.18-0.18,0.36,0,0.36-0.18v-1.44l-1.44,0.18c-0.36,0-0.54,0.18-0.54,0.18
			c-0.18,0.18-0.18,0.36-0.18,0.54s0,0.54,0.18,0.54C365.43,52.93,365.61,53.11,365.97,53.11z"/>
		<path class="st0" d="M369.38,53.47V48.8h0.72v0.54c0.18,0,0.18-0.18,0.54-0.18c0.36,0,0.36-0.18,0.54-0.18
			c0.18,0,0.36-0.18,0.72-0.18v0.72c-0.18,0-0.36,0.18-0.72,0.18c-0.18,0-0.36,0.18-0.54,0.18s-0.36,0.18-0.54,0.18v3.41H369.38z"/>
		<path class="st0" d="M374.23,53.65c-0.36,0-0.54,0-0.72-0.18c-0.18-0.18-0.36-0.18-0.36-0.54c0-0.18-0.18-0.54-0.18-1.08v-2.51
			h-0.72V48.8h0.72v-1.44h0.72v1.44h1.44v0.54h-1.44v2.15c0,0.36,0,0.54,0,0.72c0,0.18,0,0.36,0.18,0.36c0,0,0.18,0.18,0.36,0.18
			h0.18c0,0,0.18,0,0.36,0s0.18,0,0.18,0v0.54c0,0-0.18,0-0.36,0s-0.18,0-0.36,0C374.41,53.65,374.23,53.65,374.23,53.65z"/>
		<path class="st0" d="M376.02,53.47V48.8h0.72v0.36c0.18,0,0.18-0.18,0.36-0.18s0.36-0.18,0.54-0.18c0.18,0,0.36,0,0.54,0
			c0.36,0,0.54,0,0.72,0.18c0.18,0,0.36,0.18,0.54,0.36c0.18,0.18,0.18,0.36,0.18,0.72s0,0.72,0,1.08v2.51h-0.72v-2.51
			c0-0.36,0-0.72,0-0.9s-0.18-0.36-0.18-0.54c-0.18-0.18-0.36-0.18-0.72-0.18c-0.18,0-0.36,0-0.54,0c-0.18,0-0.36,0-0.54,0.18
			c-0.18,0-0.18,0.18-0.36,0.18v3.77C376.74,53.47,376.02,53.47,376.02,53.47z"/>
		<path class="st0" d="M382.66,53.65c-0.54,0-0.9,0-1.08-0.18c-0.18-0.18-0.54-0.54-0.54-0.72c-0.18-0.36-0.18-0.72-0.18-1.26
			s0-1.08,0.18-1.44s0.36-0.54,0.72-0.72c0.36-0.18,0.72-0.18,1.08-0.18c0.54,0,1.08,0.18,1.44,0.54c0.36,0.36,0.54,0.9,0.54,1.62
			v0.54h-3.05c0,0.54,0.18,0.9,0.18,1.08c0.18,0.18,0.54,0.36,0.9,0.36c0.18,0,0.36,0,0.54,0s0.36,0,0.54,0s0.36,0,0.54,0v0.54
			c-0.18,0-0.36,0-0.54,0c-0.18,0-0.36,0-0.72,0S382.84,53.65,382.66,53.65z M381.58,50.95h2.33c0-0.54-0.18-0.9-0.18-1.26
			c-0.18-0.18-0.54-0.36-0.9-0.36c-0.18,0-0.54,0-0.72,0.18c-0.18,0.18-0.36,0.18-0.36,0.54C381.58,50.24,381.58,50.6,381.58,50.95z
			"/>
		<path class="st0" d="M385.71,53.47V48.8h0.72v0.54c0.18,0,0.18-0.18,0.54-0.18s0.36-0.18,0.54-0.18c0.18,0,0.36-0.18,0.72-0.18
			v0.72c-0.18,0-0.36,0.18-0.72,0.18c-0.18,0-0.36,0.18-0.54,0.18c-0.18,0-0.36,0.18-0.54,0.18v3.41H385.71z"/>
		<path class="st0" d="M390.38,53.65c-0.18,0-0.36,0-0.54,0c-0.18,0-0.36,0-0.54,0c-0.18,0-0.36,0-0.54,0v-0.54
			c0.18,0,0.36,0,0.54,0s0.36,0,0.54,0s0.36,0,0.54,0c0.18,0,0.54,0,0.72,0s0.36-0.18,0.36-0.18c0-0.18,0.18-0.18,0.18-0.54
			c0-0.18,0-0.18-0.18-0.36s-0.18-0.18-0.36-0.18s-0.36-0.18-0.72-0.18s-0.72-0.18-0.9-0.18s-0.36-0.18-0.54-0.36
			s-0.18-0.36-0.18-0.72c0-0.36,0-0.54,0.18-0.9c0.18-0.18,0.36-0.36,0.72-0.36c0.18,0,0.54-0.18,0.72-0.18s0.36,0,0.54,0
			c0.18,0,0.36,0,0.54,0c0.18,0,0.36,0,0.54,0v0.54c-0.18,0-0.36,0-0.54,0c-0.18,0-0.36,0-0.54,0s-0.36,0-0.54,0s-0.36,0-0.54,0
			c-0.18,0-0.18,0.18-0.36,0.18c0,0.18-0.18,0.18-0.18,0.36s0,0.18,0.18,0.36c0,0,0.18,0.18,0.36,0.18s0.36,0.18,0.72,0.18
			c0.36,0,0.72,0.18,0.9,0.18s0.36,0.18,0.54,0.36c0.18,0.18,0.18,0.36,0.18,0.72s0,0.72-0.18,0.9s-0.36,0.36-0.54,0.54
			C391.1,53.47,390.74,53.65,390.38,53.65z"/>
	</g>
</g>
<line class="st5" x1="230.55" y1="25.71" x2="230.55" y2="58.25"/>
</svg>
